<svg width="289" height="62" viewBox="0 0 289 62" fill="none" xmlns="http://www.w3.org/2000/svg">
<path d="M83.9002 47V13.4H89.6602V42.488H104.636V47H83.9002ZM122.509 47.576C119.277 47.576 116.413 46.856 113.917 45.416C111.453 43.944 109.517 41.912 108.109 39.32C106.701 36.696 105.997 33.656 105.997 30.2C105.997 26.776 106.701 23.768 108.109 21.176C109.517 18.552 111.453 16.504 113.917 15.032C116.413 13.56 119.277 12.824 122.509 12.824C125.805 12.824 128.701 13.56 131.197 15.032C133.693 16.504 135.629 18.552 137.005 21.176C138.381 23.768 139.069 26.776 139.069 30.2C139.069 33.656 138.381 36.696 137.005 39.32C135.629 41.912 133.693 43.944 131.197 45.416C128.701 46.856 125.805 47.576 122.509 47.576ZM122.557 42.392C124.701 42.392 126.573 41.912 128.173 40.952C129.773 39.96 131.005 38.552 131.869 36.728C132.733 34.904 133.165 32.728 133.165 30.2C133.165 27.672 132.733 25.496 131.869 23.672C131.005 21.848 129.773 20.456 128.173 19.496C126.573 18.504 124.701 18.008 122.557 18.008C120.413 18.008 118.541 18.504 116.941 19.496C115.341 20.456 114.093 21.848 113.197 23.672C112.333 25.496 111.901 27.672 111.901 30.2C111.901 32.728 112.333 34.904 113.197 36.728C114.093 38.552 115.341 39.96 116.941 40.952C118.541 41.912 120.413 42.392 122.557 42.392ZM159.625 47.576C156.297 47.576 153.417 46.856 150.985 45.416C148.585 43.944 146.729 41.912 145.417 39.32C144.137 36.696 143.497 33.672 143.497 30.248C143.497 26.792 144.137 23.768 145.417 21.176C146.729 18.552 148.585 16.504 150.985 15.032C153.417 13.56 156.297 12.824 159.625 12.824C163.625 12.824 166.889 13.816 169.417 15.8C171.945 17.752 173.545 20.52 174.217 24.104H167.881C167.433 22.216 166.521 20.728 165.145 19.64C163.769 18.552 161.913 18.008 159.577 18.008C157.465 18.008 155.641 18.504 154.105 19.496C152.601 20.456 151.433 21.864 150.601 23.72C149.801 25.544 149.401 27.72 149.401 30.248C149.401 32.776 149.801 34.952 150.601 36.776C151.433 38.568 152.601 39.96 154.105 40.952C155.641 41.912 157.465 42.392 159.577 42.392C161.913 42.392 163.769 41.896 165.145 40.904C166.521 39.88 167.433 38.472 167.881 36.68H174.217C173.577 40.072 171.977 42.744 169.417 44.696C166.889 46.616 163.625 47.576 159.625 47.576ZM179.853 47V13.4H185.613V27.272L198.285 13.4H205.437L193.005 26.744L205.725 47H198.717L188.925 31.16L185.613 34.76V47H179.853ZM221.947 47V13.4H227.707V47H221.947ZM234.463 47V13.4H240.223L256.399 37.688V13.4H262.159V47H256.399L240.223 22.76V47H234.463Z" fill="black"/>
<rect x="13.3311" y="32.1399" width="1.15923" height="31.2992" transform="rotate(-90 13.3311 32.1399)" fill="black"/>
<rect x="28.4011" y="15.3311" width="1.15923" height="31.2992" fill="black"/>
<rect y="2" width="1.15923" height="57.9614" fill="black"/>
<rect y="3.15923" width="1.15923" height="19.3205" transform="rotate(-90 0 3.15923)" fill="black"/>
<rect y="59.9614" width="1.15923" height="19.3205" transform="rotate(-90 0 59.9614)" fill="black"/>
<rect x="58.0765" y="59.9614" width="1.15923" height="57.9614" transform="rotate(179.886 58.0765 59.9614)" fill="black"/>
<rect x="58.0742" y="58.8022" width="1.15923" height="19.4283" transform="rotate(89.8862 58.0742 58.8022)" fill="black"/>
<rect x="57.9614" y="2.00011" width="1.15923" height="19.3177" transform="rotate(89.8862 57.9614 2.00011)" fill="black"/>
</svg>
